<svg id="visual" viewBox="0 0 900 600" preserveAspectRatio="none" xmlns="http://www.w3.org/2000/svg" xmlns:xlink="http://www.w3.org/1999/xlink" version="1.1"><rect x="0" y="0" width="900" height="600" fill="#121212"></rect><defs><linearGradient id="grad1_0" x1="33.3%" y1="0%" x2="100%" y2="100%"><stop offset="20%" stop-color="#121212" stop-opacity="1"></stop><stop offset="80%" stop-color="#121212" stop-opacity="1"></stop></linearGradient></defs><defs><linearGradient id="grad2_0" x1="0%" y1="0%" x2="66.7%" y2="100%"><stop offset="20%" stop-color="#121212" stop-opacity="1"></stop><stop offset="80%" stop-color="#121212" stop-opacity="1"></stop></linearGradient></defs><g transform="translate(900, 0)"><path d="M0 297.5C-54.3 291 -108.6 284.5 -148.7 257.6C-188.9 230.7 -214.9 183.3 -237.3 137C-259.7 90.7 -278.6 45.3 -297.5 0L0 0Z" fill="#b3b3b3"></path></g><g transform="translate(0, 600)"><path d="M0 -297.5C45.1 -278.1 90.1 -258.8 136.5 -236.4C182.9 -214.1 230.6 -188.6 257.6 -148.7C284.7 -108.8 291.1 -54.4 297.5 0L0 0Z" fill="#b3b3b3"></path></g></svg>